<svg xmlns="http://www.w3.org/2000/svg" xmlns:xlink="http://www.w3.org/1999/xlink" xmlns:serif="http://www.serif.com/" viewBox="0 0 32 40" version="1.1" xml:space="preserve" style="" x="0px" y="0px" fill-rule="evenodd" clip-rule="evenodd" stroke-linejoin="round" stroke-miterlimit="2"><g serif:id="Icon 32px"><path d="M4,3.073c-0.552,-0 -1,0.447 -1,1l0,9.715c0,0.552 0.448,1 1,1l9.613,-0c0.552,-0 1,-0.448 1,-1l-0,-9.715c-0,-0.553 -0.448,-1 -1,-1l-9.613,-0Z"/><circle cx="23.188" cy="23.129" r="5.871"/><path d="M15.144,24.617c-4.067,-0.399 -7.312,-3.617 -7.752,-7.672c-0.06,-0.549 -0.554,-0.946 -1.102,-0.886c-0.549,0.059 -0.946,0.553 -0.886,1.102c0.542,4.993 4.537,8.955 9.545,9.447c0.549,0.054 1.039,-0.348 1.093,-0.898c0.054,-0.549 -0.348,-1.039 -0.898,-1.093Z"/><path d="M18.078,7.592c3.395,0.837 6.004,3.68 6.497,7.197c0.077,0.547 0.583,0.928 1.129,0.852c0.547,-0.077 0.928,-0.583 0.852,-1.129c-0.607,-4.331 -3.819,-7.831 -8,-8.862c-0.535,-0.132 -1.078,0.196 -1.21,0.732c-0.132,0.536 0.196,1.078 0.732,1.21Z"/></g><text x="0" y="47" fill="#000000" font-size="5px" font-weight="bold" font-family="'Helvetica Neue', Helvetica, Arial-Unicode, Arial, Sans-serif">Created by Rolas Design</text><text x="0" y="52" fill="#000000" font-size="5px" font-weight="bold" font-family="'Helvetica Neue', Helvetica, Arial-Unicode, Arial, Sans-serif">from the Noun Project</text></svg>